<svg width="136" height="136" viewBox="0 0 136 136" fill="none" xmlns="http://www.w3.org/2000/svg">
<path fill-rule="evenodd" clip-rule="evenodd" d="M135 68C135 105.003 105.003 135 68.0008 135C30.9975 135 1 105.003 1 68C1 30.9967 30.9975 1 68.0008 1C105.003 1 135 30.9967 135 68" fill="#E4E4E3"/>
<path fill-rule="evenodd" clip-rule="evenodd" d="M135 68C135 105.003 105.003 135 68.0008 135C30.9975 135 1 105.003 1 68C1 30.9967 30.9975 1 68.0008 1C105.003 1 135 30.9967 135 68Z" stroke="#8A8B8A"/>
<path fill-rule="evenodd" clip-rule="evenodd" d="M67.5004 89C47.334 89 29.2559 97.9106 17 112C29.2559 126.09 47.334 135 67.5004 135C87.666 135 105.745 126.09 118 112C105.745 97.9106 87.666 89 67.5004 89" fill="#473189"/>
<path fill-rule="evenodd" clip-rule="evenodd" d="M82.7966 88.248C82.2693 83.8103 81.1206 79.2702 82.2482 74.9445C80.4136 73.992 78.4135 72.5957 76.3859 72.188C74.3591 71.7802 72.1119 71.9955 70.457 73.2336C69.2714 74.1219 68.5259 75.4078 68.0002 76.8103C67.4745 75.4078 66.7283 74.1219 65.5434 73.2336C63.8886 71.9955 61.6413 71.7802 59.6137 72.188C57.5862 72.5957 55.586 73.992 53.7515 74.9445C54.8791 79.2702 53.7311 83.8103 53.2038 88.248C52.6757 92.6856 53.0014 97.7329 56.2711 100.788C58.8644 103.211 62.5468 103.709 66.0339 104.658C66.0919 105.114 69.9085 105.114 69.9658 104.658C73.4536 103.709 77.1361 103.211 79.7286 100.788C82.9983 97.7329 83.3239 92.6856 82.7966 88.248" fill="#D3AE8D"/>
<path fill-rule="evenodd" clip-rule="evenodd" d="M91.7992 57.7243C90.7487 57.5611 90.103 56.8207 89.4372 57.6605C89.8311 50.8704 88.7145 43.716 84.7293 38.2466C81.0377 33.1803 74.4876 29.9891 68.5 31.2917C62.5132 29.9891 55.9615 33.1803 52.2699 38.2466C48.2847 43.716 47.1689 50.8704 47.5621 57.6605C46.8962 56.8207 46.2513 57.5611 45.2008 57.7243C43.9265 60.4543 43.653 63.6526 44.4447 66.5639C45.2365 69.4767 47.0873 72.0789 49.5621 73.7593C51.1503 83.0081 58.6919 91.4596 67.6577 93.7866C67.6772 93.9049 68.2389 94.0437 68.5 93.9869C68.7611 94.0437 69.3228 93.9049 69.3431 93.7866C78.3081 91.4596 85.8497 83.0081 87.4387 73.7593C89.9119 72.0789 91.7627 69.4767 92.5553 66.5639C93.347 63.6526 93.0735 60.4543 91.7992 57.7243" fill="#E9BF99"/>
<path fill-rule="evenodd" clip-rule="evenodd" d="M55.5435 48.734C55.5968 48.6979 55.6501 48.6602 55.705 48.6272C57.1679 47.7418 58.9592 47.6538 60.6666 47.5901C64.9517 47.4299 69.2447 47.2704 73.525 47.5163C77.4299 47.7402 81.5119 48.3821 84.6133 50.7688C87.2536 52.8013 88.9031 55.925 89.6894 59.1673C90.2295 61.4001 90.3902 63.6973 90.3832 66C92.8385 60.4832 94.7317 54.7002 94.9763 48.6947C95.2805 41.2233 92.659 33.3033 86.7339 28.7592C81.9808 25.113 75.7311 24.0296 69.7448 24.0006C60.9661 23.9581 51.5297 26.3575 45.9965 33.1878C44.3643 35.203 43.1069 37.6353 43.0042 40.2279C42.9007 42.8221 44.7289 45.9725 47.0384 47.1462C45.6908 51.6016 45.8052 56.4891 47.3622 60.8753C48.8956 56.0342 51.9483 52.3425 55.4494 48.6704C55.4808 48.6924 55.5129 48.7128 55.5435 48.734" fill="#40372E"/>
</svg>
